<?xml version="1.0" encoding="UTF-8"?>
<svg version="1.1" xmlns="http://www.w3.org/2000/svg" width="488" height="488">
<path d="M0 0 C1.00788574 0.20898926 2.01577148 0.41797852 3.05419922 0.63330078 C39.54874399 8.39006201 73.9384792 24.62375539 103 48 C103.86818359 48.69464355 103.86818359 48.69464355 104.75390625 49.40332031 C119.11117744 61.00523821 132.94108862 74.18895797 144 89 C144.70769531 89.92570801 144.70769531 89.92570801 145.4296875 90.87011719 C168.14563163 120.66360361 183.29277015 154.37037603 191 191 C191.21172852 191.98371582 191.42345703 192.96743164 191.64160156 193.98095703 C197.92851017 224.50384851 197.52439135 258.56783895 191 289 C190.68651611 290.51182861 190.68651611 290.51182861 190.36669922 292.05419922 C182.60993799 328.54874399 166.37624461 362.9384792 143 392 C142.5369043 392.57878906 142.07380859 393.15757812 141.59667969 393.75390625 C129.99476179 408.11117744 116.81104203 421.94108862 102 433 C101.07429199 433.70769531 101.07429199 433.70769531 100.12988281 434.4296875 C70.33639639 457.14563163 36.62962397 472.29277015 0 480 C-1.47557373 480.31759277 -1.47557373 480.31759277 -2.98095703 480.64160156 C-33.50384851 486.92851017 -67.56783895 486.52439135 -98 480 C-99.51182861 479.68651611 -99.51182861 479.68651611 -101.05419922 479.36669922 C-137.54874399 471.60993799 -171.9384792 455.37624461 -201 432 C-201.57878906 431.5369043 -202.15757812 431.07380859 -202.75390625 430.59667969 C-217.11117744 418.99476179 -230.94108862 405.81104203 -242 391 C-242.70769531 390.07429199 -242.70769531 390.07429199 -243.4296875 389.12988281 C-266.14563163 359.33639639 -281.29277015 325.62962397 -289 289 C-289.31759277 287.52442627 -289.31759277 287.52442627 -289.64160156 286.01904297 C-295.92851017 255.49615149 -295.52439135 221.43216105 -289 191 C-288.79101074 189.99211426 -288.58202148 188.98422852 -288.36669922 187.94580078 C-280.60993799 151.45125601 -264.37624461 117.0615208 -241 88 C-240.5369043 87.42121094 -240.07380859 86.84242187 -239.59667969 86.24609375 C-227.99476179 71.88882256 -214.81104203 58.05891138 -200 47 C-199.38286133 46.52820312 -198.76572266 46.05640625 -198.12988281 45.5703125 C-168.33639639 22.85436837 -134.62962397 7.70722985 -98 0 C-97.01628418 -0.21172852 -96.03256836 -0.42345703 -95.01904297 -0.64160156 C-64.49615149 -6.92851017 -30.43216105 -6.52439135 0 0 Z " fill="#D8D8D8" transform="translate(293,4)"/>
</svg>
